<?xml version="1.0" encoding="UTF-8" standalone="no"?>
<svg
   width="32"
   height="32"
   fill="currentColor"
   class="bi bi-bookmarks"
   viewBox="0 0 32 32"
   version="1.1"
   id="svg2"
   sodipodi:docname="bookmarks.svg"
   inkscape:version="1.3.2 (1:1.3.2+202311252150+091e20ef0f)"
   xmlns:inkscape="http://www.inkscape.org/namespaces/inkscape"
   xmlns:sodipodi="http://sodipodi.sourceforge.net/DTD/sodipodi-0.dtd"
   xmlns="http://www.w3.org/2000/svg"
   xmlns:svg="http://www.w3.org/2000/svg">
  <defs
     id="defs2" />
  <sodipodi:namedview
     id="namedview2"
     pagecolor="#505050"
     bordercolor="#ffffff"
     borderopacity="1"
     inkscape:showpageshadow="0"
     inkscape:pageopacity="0"
     inkscape:pagecheckerboard="1"
     inkscape:deskcolor="#505050"
     inkscape:zoom="14.986526"
     inkscape:cx="20.151435"
     inkscape:cy="19.150536"
     inkscape:window-width="1864"
     inkscape:window-height="1016"
     inkscape:window-x="56"
     inkscape:window-y="27"
     inkscape:window-maximized="1"
     inkscape:current-layer="svg2" />
  <g
     id="g2"
     transform="translate(1.999806)"
     style="fill:#ffffff;fill-opacity:1">
    <path
       d="M 2,8.0001292 A 4.0000646,4.0000646 0 0 1 6.0000646,4.0000646 H 18.000258 a 4.0000646,4.0000646 0 0 1 4.000065,4.0000646 V 31.000501 a 1.0000161,1.0000161 0 0 1 -1.554025,0.832013 L 12.000161,26.202423 3.5540251,31.832514 A 1.0000161,1.0000161 0 0 1 2,31.000501 Z M 6.0000646,6.0000969 A 2.0000323,2.0000323 0 0 0 4.0000323,8.0001292 V 29.13247 l 7.4461207,-4.96408 a 1.0000161,1.0000161 0 0 1 1.108017,0 l 7.446121,4.96408 V 8.0001292 A 2.0000323,2.0000323 0 0 0 18.000258,6.0000969 Z"
       id="path1"
       style="stroke-width:1;fill:#ffffff;fill-opacity:1" />
    <path
       d="M 6.5360733,2.0000323 H 22.000323 a 2.0000323,2.0000323 0 0 1 2.000032,2.0000323 V 27.536445 l 0.446008,0.296004 a 1.0000161,1.0000161 0 0 0 1.554025,-0.832013 V 4.0000646 A 4.0000646,4.0000646 0 0 0 22.000323,0 H 10.000129 A 4.0000646,4.0000646 0 0 0 6.5360733,2.0000323"
       id="path2"
       style="stroke-width:1;fill:#ffffff;fill-opacity:1" />
  </g>
</svg>
