<?xml version="1.0" encoding="UTF-8" standalone="no"?>
<svg
   height="32"
   viewBox="0 0 32 32"
   width="32"
   version="1.1"
   id="svg2"
   sodipodi:docname="categories.svg"
   inkscape:version="1.3.2 (1:1.3.2+202311252150+091e20ef0f)"
   xmlns:inkscape="http://www.inkscape.org/namespaces/inkscape"
   xmlns:sodipodi="http://sodipodi.sourceforge.net/DTD/sodipodi-0.dtd"
   xmlns="http://www.w3.org/2000/svg"
   xmlns:svg="http://www.w3.org/2000/svg">
  <defs
     id="defs2" />
  <sodipodi:namedview
     id="namedview2"
     pagecolor="#505050"
     bordercolor="#ffffff"
     borderopacity="1"
     inkscape:showpageshadow="0"
     inkscape:pageopacity="0"
     inkscape:pagecheckerboard="1"
     inkscape:deskcolor="#505050"
     inkscape:zoom="17.03531"
     inkscape:cx="15.321118"
     inkscape:cy="19.723738"
     inkscape:window-width="1864"
     inkscape:window-height="1016"
     inkscape:window-x="56"
     inkscape:window-y="27"
     inkscape:window-maximized="1"
     inkscape:current-layer="svg2" />
  <path
     d="m 28.571429,23.00635 v -4.730481 a 2.2857143,2.2844837 0 0 0 -2.285715,-2.284484 h -9.142857 v -4.568967 h 2.285714 A 2.2883429,2.2871108 0 0 0 21.714286,9.137934 V 2.2844837 A 2.2883429,2.2871108 0 0 0 19.428571,0 H 12.571429 A 2.288,2.2867681 0 0 0 10.285714,2.2844837 V 9.137934 a 2.288,2.2867681 0 0 0 2.285715,2.284484 h 2.285714 v 4.568967 H 5.7142857 a 2.2857143,2.2844837 0 0 0 -2.2857142,2.284484 v 4.73128 a 4.5714286,4.5689673 0 1 0 2.2857142,0 v -4.73128 h 9.1428573 v 4.731166 a 4.5714286,4.5689673 0 1 0 2.285714,0 v -4.731166 h 9.142857 v 4.730481 a 4.5714286,4.5689673 0 1 0 2.285715,0 z m -16,-20.7218663 h 6.857142 l 0.0011,6.8534503 H 12.571429 Z M 6.8571429,27.413803 A 2.2857143,2.2844837 0 1 1 4.5714287,25.12932 2.2883429,2.2871108 0 0 1 6.8571429,27.413803 Z m 11.4285711,0 A 2.2857143,2.2844837 0 1 1 16,25.12932 a 2.2888,2.2875677 0 0 1 2.285714,2.284483 z m 9.142857,2.284485 a 2.2857143,2.2844837 0 1 1 2.285715,-2.284485 2.2883429,2.2871108 0 0 1 -2.285715,2.284485 z"
     id="path1"
     style="fill:#ffffff;fill-opacity:1;stroke-width:1;stroke-dasharray:none" />
  <path
     d="M -0.56985115,-6.7216718e-8 H 31.430149 V 32 H -0.56985115 Z"
     fill="none"
     id="path2" />
</svg>
