<?xml version="1.0" encoding="UTF-8" standalone="no"?>
<svg
   width="27"
   height="26.728117"
   fill="currentColor"
   class="bi bi-pencil-square"
   viewBox="0 0 27 26.728116"
   version="1.1"
   id="svg2"
   sodipodi:docname="edit-note.svg"
   inkscape:version="1.3.2 (1:1.3.2+202311252150+091e20ef0f)"
   xmlns:inkscape="http://www.inkscape.org/namespaces/inkscape"
   xmlns:sodipodi="http://sodipodi.sourceforge.net/DTD/sodipodi-0.dtd"
   xmlns="http://www.w3.org/2000/svg"
   xmlns:svg="http://www.w3.org/2000/svg">
  <defs
     id="defs2" />
  <sodipodi:namedview
     id="namedview2"
     pagecolor="#505050"
     bordercolor="#ffffff"
     borderopacity="1"
     inkscape:showpageshadow="0"
     inkscape:pageopacity="0"
     inkscape:pagecheckerboard="1"
     inkscape:deskcolor="#505050"
     inkscape:zoom="17.495233"
     inkscape:cx="7.9450214"
     inkscape:cy="14.461082"
     inkscape:window-width="1864"
     inkscape:window-height="1016"
     inkscape:window-x="56"
     inkscape:window-y="27"
     inkscape:window-maximized="1"
     inkscape:current-layer="svg2" />
  <g
     id="g2"
     transform="matrix(1.8432684,0,0,1.8432684,-1.8432684,-0.92090938)"
     style="fill:#303030;fill-opacity:1;stroke-width:0.542516">
    <g
       id="g1"
       style="fill:#303030;fill-opacity:1;stroke-width:0.542516">
      <path
         d="m 15.502,1.94 a 0.5,0.5 0 0 1 0,0.706 l -1.043,1.044 -2,-2 1.043,-1.044 a 0.5,0.5 0 0 1 0.707,0 l 1.293,1.293 z m -1.75,2.456 -2,-2 L 4.939,9.21 A 0.5,0.5 0 0 0 4.818,9.406 L 4.013,11.82 a 0.25,0.25 0 0 0 0.316,0.316 l 2.414,-0.805 a 0.5,0.5 0 0 0 0.196,-0.12 l 6.813,-6.814 z"
         id="path1"
         style="fill:#303030;fill-opacity:1;stroke-width:0.542516" />
      <path
         fill-rule="evenodd"
         d="M 1,13.5 A 1.5,1.5 0 0 0 2.5,15 h 11 A 1.5,1.5 0 0 0 15,13.5 v -6 a 0.5,0.5 0 0 0 -1,0 v 6 A 0.5,0.5 0 0 1 13.5,14 H 2.5 A 0.5,0.5 0 0 1 2,13.5 V 2.5 A 0.5,0.5 0 0 1 2.5,2 H 9 A 0.5,0.5 0 0 0 9,1 H 2.5 A 1.5,1.5 0 0 0 1,2.5 Z"
         id="path2"
         style="fill:#303030;fill-opacity:1;stroke-width:0.542516" />
    </g>
  </g>
</svg>
