<?xml version="1.0" encoding="UTF-8" standalone="no"?>
<svg
   width="32"
   height="32"
   fill="currentColor"
   class="bi bi-marker-tip"
   viewBox="0 0 32 32"
   version="1.1"
   id="svg1"
   sodipodi:docname="highlights.svg"
   inkscape:version="1.3.2 (1:1.3.2+202311252150+091e20ef0f)"
   xmlns:inkscape="http://www.inkscape.org/namespaces/inkscape"
   xmlns:sodipodi="http://sodipodi.sourceforge.net/DTD/sodipodi-0.dtd"
   xmlns="http://www.w3.org/2000/svg"
   xmlns:svg="http://www.w3.org/2000/svg">
  <defs
     id="defs1" />
  <sodipodi:namedview
     id="namedview1"
     pagecolor="#505050"
     bordercolor="#ffffff"
     borderopacity="1"
     inkscape:showpageshadow="0"
     inkscape:pageopacity="0"
     inkscape:pagecheckerboard="1"
     inkscape:deskcolor="#505050"
     inkscape:zoom="6.9296526"
     inkscape:cx="-1.154459"
     inkscape:cy="13.637047"
     inkscape:window-width="1920"
     inkscape:window-height="1043"
     inkscape:window-x="1920"
     inkscape:window-y="0"
     inkscape:window-maximized="1"
     inkscape:current-layer="svg1" />
  <path
     d="M 32,16 A 16,16 0 1 1 0,16 16,16 0 0 1 32,16 M 23,28.128 20.438,18.736 A 1,1 0 0 0 19.472,18 h -6.944 a 1,1 0 0 0 -0.966,0.736 l -2.56,9.392 A 13.94,13.94 0 0 0 16,30 c 2.55,0 4.94,-0.68 7,-1.872 m 1.746,-1.196 a 14,14 0 1 0 -17.492,0 l 2.38,-8.72 a 3,3 0 0 1 2.62,-2.2 l 2.31,-7.702 c 0.426,-1.426 2.446,-1.426 2.872,0 l 2.312,7.702 a 3,3 0 0 1 2.62,2.2 z"
     id="path1"
     style="stroke-width:1;fill:#ffffff;fill-opacity:1" />
</svg>
