<?xml version="1.0" encoding="UTF-8" standalone="no"?>
<svg
   width="72"
   height="72"
   fill="currentColor"
   class="bi bi-arrow-right-circle"
   viewBox="0 0 72 72"
   version="1.1"
   id="svg1"
   sodipodi:docname="next-unfilled.svg"
   inkscape:version="1.3.2 (1:1.3.2+202311252150+091e20ef0f)"
   xmlns:inkscape="http://www.inkscape.org/namespaces/inkscape"
   xmlns:sodipodi="http://sodipodi.sourceforge.net/DTD/sodipodi-0.dtd"
   xmlns="http://www.w3.org/2000/svg"
   xmlns:svg="http://www.w3.org/2000/svg">
  <defs
     id="defs1" />
  <sodipodi:namedview
     id="namedview1"
     pagecolor="#505050"
     bordercolor="#ffffff"
     borderopacity="1"
     inkscape:showpageshadow="0"
     inkscape:pageopacity="0"
     inkscape:pagecheckerboard="1"
     inkscape:deskcolor="#505050"
     inkscape:zoom="3.6925314"
     inkscape:cx="45.76806"
     inkscape:cy="43.601525"
     inkscape:window-width="1864"
     inkscape:window-height="1016"
     inkscape:window-x="56"
     inkscape:window-y="27"
     inkscape:window-maximized="1"
     inkscape:current-layer="svg1" />
  <g
     id="g2"
     transform="matrix(2,0,0,2,4.7056774,4.7268807)"
     style="stroke-width:0.5">
    <circle
       style="fill:#ffffff;stroke:#000000;stroke-width:0;stroke-linecap:round;stroke-linejoin:round"
       id="path2"
       cx="15.647161"
       cy="15.63656"
       r="17.5" />
    <path
       fill-rule="evenodd"
       d="m -0.10283872,15.63656 a 15.75,15.75 0 1 0 31.50000072,0 15.75,15.75 0 0 0 -31.50000072,0 m 33.75000072,0 a 18,18 0 1 1 -36.0000007,0 18,18 0 0 1 36.0000007,0 m -25.8750007,-1.125 a 1.125,1.125 0 0 0 0,2.25 H 20.806412 l -4.83075,4.8285 a 1.1264211,1.1264211 0 0 0 1.593,1.593 l 6.75,-6.75 a 1.125,1.125 0 0 0 0,-1.593 l -6.75,-6.7499995 a 1.1264211,1.1264211 0 1 0 -1.593,1.593 l 4.83075,4.8284995 z"
       id="path1"
       style="fill:#007bff;fill-opacity:1;stroke-width:0.499999" />
  </g>
</svg>
