<?xml version="1.0" encoding="UTF-8" standalone="no"?>
<svg
   width="32"
   height="32"
   fill="currentColor"
   class="bi bi-journal-minus"
   viewBox="0 0 32 32"
   version="1.1"
   id="svg3"
   sodipodi:docname="remove-book.svg"
   inkscape:version="1.3.2 (091e20e, 2023-11-25)"
   xmlns:inkscape="http://www.inkscape.org/namespaces/inkscape"
   xmlns:sodipodi="http://sodipodi.sourceforge.net/DTD/sodipodi-0.dtd"
   xmlns="http://www.w3.org/2000/svg"
   xmlns:svg="http://www.w3.org/2000/svg">
  <defs
     id="defs3" />
  <sodipodi:namedview
     id="namedview3"
     pagecolor="#505050"
     bordercolor="#ffffff"
     borderopacity="1"
     inkscape:showpageshadow="0"
     inkscape:pageopacity="0"
     inkscape:pagecheckerboard="1"
     inkscape:deskcolor="#505050"
     inkscape:zoom="9.7661447"
     inkscape:cx="2.4574692"
     inkscape:cy="11.570584"
     inkscape:window-width="1864"
     inkscape:window-height="1016"
     inkscape:window-x="56"
     inkscape:window-y="27"
     inkscape:window-maximized="1"
     inkscape:current-layer="svg3" />
  <g
     id="g1"
     transform="scale(2)"
     style="stroke-width:0.5">
    <path
       fill-rule="evenodd"
       d="M 5.5,8 A 0.5,0.5 0 0 1 6,7.5 h 4 a 0.5,0.5 0 0 1 0,1 H 6 A 0.5,0.5 0 0 1 5.5,8"
       id="path1"
       style="fill:#ffffff;fill-opacity:1;stroke-width:0.5" />
    <path
       d="m 3,0 h 10 a 2,2 0 0 1 2,2 v 12 a 2,2 0 0 1 -2,2 H 3 A 2,2 0 0 1 1,14 v -1 h 1 v 1 a 1,1 0 0 0 1,1 h 10 a 1,1 0 0 0 1,-1 V 2 A 1,1 0 0 0 13,1 H 3 A 1,1 0 0 0 2,2 V 3 H 1 V 2 A 2,2 0 0 1 3,0"
       id="path2"
       style="fill:#ffffff;fill-opacity:1;stroke-width:0.5" />
    <path
       d="M 1,5 V 4.5 a 0.5,0.5 0 0 1 1,0 V 5 h 0.5 a 0.5,0.5 0 0 1 0,1 h -2 a 0.5,0.5 0 0 1 0,-1 z M 1,8 V 7.5 a 0.5,0.5 0 0 1 1,0 V 8 h 0.5 a 0.5,0.5 0 0 1 0,1 h -2 a 0.5,0.5 0 0 1 0,-1 z m 0,3 v -0.5 a 0.5,0.5 0 0 1 1,0 V 11 h 0.5 a 0.5,0.5 0 0 1 0,1 h -2 a 0.5,0.5 0 0 1 0,-1 z"
       id="path3"
       style="fill:#ffffff;fill-opacity:1;stroke-width:0.5" />
  </g>
</svg>
