<?xml version="1.0" encoding="UTF-8" standalone="no"?>
<svg
   width="32"
   height="32"
   fill="currentColor"
   class="bi bi-sort-down"
   viewBox="0 0 32 32"
   version="1.1"
   id="svg1"
   sodipodi:docname="sort.svg"
   inkscape:version="1.3.2 (1:1.3.2+202311252150+091e20ef0f)"
   xmlns:inkscape="http://www.inkscape.org/namespaces/inkscape"
   xmlns:sodipodi="http://sodipodi.sourceforge.net/DTD/sodipodi-0.dtd"
   xmlns="http://www.w3.org/2000/svg"
   xmlns:svg="http://www.w3.org/2000/svg">
  <defs
     id="defs1" />
  <sodipodi:namedview
     id="namedview1"
     pagecolor="#505050"
     bordercolor="#ffffff"
     borderopacity="1"
     inkscape:showpageshadow="0"
     inkscape:pageopacity="0"
     inkscape:pagecheckerboard="1"
     inkscape:deskcolor="#505050"
     inkscape:zoom="21.062993"
     inkscape:cx="9.9226164"
     inkscape:cy="17.020373"
     inkscape:window-width="1920"
     inkscape:window-height="1043"
     inkscape:window-x="1920"
     inkscape:window-y="0"
     inkscape:window-maximized="1"
     inkscape:current-layer="svg1" />
  <path
     d="m 6.6217952,4.9647083 a 1.1034002,1.1034002 0 0 0 -2.2068004,0 V 24.369104 l -2.5289933,-2.5312 a 1.1047941,1.1047941 0 0 0 -1.56241466,1.562415 l 4.41360086,4.411394 0.015448,0.01545 a 1.0967798,1.0967798 0 0 0 1.5447602,-0.01324 l 4.4136011,-4.4136 A 1.1040159,1.1040159 0 0 0 9.1507885,21.837904 l -2.5289933,2.5312 z m 7.7238018,2.2068004 a 1.1034002,1.1034002 0 0 1 1.1034,-1.1034002 H 30.8966 a 1.1034002,1.1034002 0 0 1 0,2.2068004 H 15.448997 a 1.1034002,1.1034002 0 0 1 -1.1034,-1.1034002 m 1.1034,5.5170003 a 1.1034005,1.1034005 0 0 0 0,2.206801 h 11.034002 a 1.1034005,1.1034005 0 0 0 0,-2.206801 z m 0,6.620402 a 1.1034002,1.1034002 0 0 0 0,2.2068 h 6.620401 a 1.1034002,1.1034002 0 0 0 0,-2.2068 z m 0,6.620401 a 1.1034002,1.1034002 0 0 0 0,2.2068 h 2.2068 a 1.1034002,1.1034002 0 0 0 0,-2.2068 z"
     id="path1"
     style="stroke-width:1;fill:#ffffff;fill-opacity:1" />
</svg>
